<?xml version="1.0" encoding="UTF-8" standalone="no"?>
<svg
   xmlns:dc="http://purl.org/dc/elements/1.1/"
   xmlns:cc="http://creativecommons.org/ns#"
   xmlns:rdf="http://www.w3.org/1999/02/22-rdf-syntax-ns#"
   xmlns:svg="http://www.w3.org/2000/svg"
   xmlns="http://www.w3.org/2000/svg"
   viewBox="0 0 218.05333 270.35999"
   height="270.35999"
   width="218.05333"
   xml:space="preserve"
   id="svg2"
   version="1.1"><metadata
     id="metadata8"><rdf:RDF><cc:Work
         rdf:about=""><dc:format>image/svg+xml</dc:format><dc:type
           rdf:resource="http://purl.org/dc/dcmitype/StillImage" /></cc:Work></rdf:RDF></metadata><defs
     id="defs6" /><g
     transform="matrix(1.3333333,0,0,-1.3333333,0,270.36)"
     id="g10"><g
       transform="scale(0.1)"
       id="g12"><path
         id="path14"
         style="fill:#2e2d2d;fill-opacity:1;fill-rule:nonzero;stroke:none"
         d="m 76.3906,158.75 c 0,-22.98 5.1172,-40.27 15.3516,-51.84 10.2308,-11.5819 23.2028,-17.3709 38.9098,-17.3709 8.164,0 15.575,1.6093 22.215,4.8398 l -20.195,19.1211 21.273,22.352 20.868,-19.793 c 6.105,11.043 9.156,25.261 9.156,42.691 0,22.25 -4.91,39.352 -14.739,51.289 -9.832,11.941 -22.875,17.902 -39.117,17.902 -16.246,0 -29.261,-5.941 -39.0427,-17.839 C 81.2852,198.211 76.3906,181.09 76.3906,158.75 Z m -41.332,0 c 0,33.922 8.8398,59.77 26.5234,77.539 17.6797,17.781 40.434,26.66 68.262,26.66 27.828,0 50.691,-8.769 68.597,-26.308 17.911,-17.563 26.868,-43.52 26.868,-77.891 0,-29.719 -6.914,-53.32 -20.739,-70.8203 L 226.113,67.7188 204.438,45.5117 181.145,67.4609 C 166.781,58.8281 149.813,54.5313 130.25,54.5313 c -26.844,0 -49.4141,8.5 -67.7266,25.5078 C 44.2148,97.0586 35.0586,123.289 35.0586,158.75" /><path
         id="path16"
         style="fill:#2e2d2d;fill-opacity:1;fill-rule:nonzero;stroke:none"
         d="m 358.461,132.09 c 0,14.351 -2.895,25.422 -8.68,33.18 -5.793,7.761 -13.847,11.652 -24.172,11.652 -11.129,0 -19.433,-4.043 -24.906,-12.121 -5.476,-8.082 -8.215,-19.75 -8.215,-35.012 0,-13.367 3.075,-23.738 9.227,-31.0898 6.144,-7.3711 14.473,-11.0508 24.973,-11.0508 9.332,0 16.964,3.9805 22.886,11.9219 5.93,7.9497 8.887,18.7817 8.887,32.5197 z m -64.223,55.332 h 0.543 c 9.512,15.258 23.649,22.887 42.41,22.887 17.77,0 32.379,-6.758 43.825,-20.27 11.445,-13.5 17.168,-31.93 17.168,-55.269 0,-23.418 -5.434,-42.4302 -16.293,-57.0083 -10.86,-14.5898 -26.032,-21.8906 -45.508,-21.8906 -19.305,0 -33.438,7.457 -42.414,22.3594 h -0.535 V 59.7813 H 255.598 V 257.699 h 38.64 v -70.277" /><path
         id="path18"
         style="fill:#2e2d2d;fill-opacity:1;fill-rule:nonzero;stroke:none"
         d="M 465.77,206.539 V 59.7813 H 427.129 V 206.539 Z m 0,17.371 h -38.641 v 35.809 H 465.77 V 223.91" /><path
         id="path20"
         style="fill:#2e2d2d;fill-opacity:1;fill-rule:nonzero;stroke:none"
         d="m 542.113,59.7813 h -38.64 V 257.699 h 38.64 V 150.801 l 48.473,55.738 h 47.527 l -51.836,-56.82 53.188,-89.9377 h -46.32 L 558.141,122.66 542.113,106.102 V 59.7813" /><path
         id="path22"
         style="fill:#2e2d2d;fill-opacity:1;fill-rule:nonzero;stroke:none"
         d="m 773.563,93.9805 h 40.261 c 14.18,0 25.219,5.9297 33.117,17.7695 7.903,11.852 11.852,28.102 11.852,48.738 0,21.274 -3.637,37.114 -10.906,47.532 -7.274,10.41 -18.356,15.621 -33.258,15.621 H 773.563 Z M 733.035,257.699 h 87.387 c 26.746,0 46.851,-8.679 60.316,-26.051 13.473,-17.367 20.2,-40.097 20.2,-68.199 0,-31.051 -7.161,-56.097 -21.481,-75.1209 -14.316,-19.039 -34.531,-28.5468 -60.652,-28.5468 h -85.77 V 257.699" /><path
         id="path24"
         style="fill:#2e2d2d;fill-opacity:1;fill-rule:nonzero;stroke:none"
         d="m 1023.32,147.699 c -0.8,9.34 -3.86,16.832 -9.15,22.492 -5.3,5.661 -12.17,8.481 -20.607,8.481 -18.309,0 -28.766,-10.32 -31.368,-30.973 z m 38.11,-44.969 c -4.5,-15.1714 -12.52,-26.7691 -24.11,-34.8003 -11.58,-8.0391 -25.03,-12.0586 -40.386,-12.0586 -24.153,0 -42.586,6.668 -55.34,20 -12.746,13.3281 -19.121,31.8009 -19.121,55.3989 0,23.71 5.996,42.8 17.976,57.289 11.985,14.5 29.871,21.75 53.653,21.75 21.368,0 38.188,-6.778 50.498,-20.329 12.29,-13.558 18.44,-33.71 18.44,-60.449 V 122.66 H 961.121 c 0.899,-11.941 4.399,-20.898 10.5,-26.8592 6.106,-5.9688 14.402,-8.961 24.91,-8.961 6.279,0 11.709,1.4688 16.289,4.379 4.58,2.9218 7.54,6.75 8.89,11.5112 h 39.72" /><path
         id="path26"
         style="fill:#2e2d2d;fill-opacity:1;fill-rule:nonzero;stroke:none"
         d="m 1171.97,161.57 c -0.72,6.371 -3.05,11.309 -7,14.809 -3.95,3.5 -10.23,5.25 -18.86,5.25 -7.98,0 -13.86,-1.301 -17.63,-3.899 -3.77,-2.609 -5.66,-5.878 -5.66,-9.832 0,-3.859 1.59,-6.847 4.79,-8.957 3.18,-2.109 15.46,-5.671 36.82,-10.703 21.81,-5.117 35.68,-11.066 41.61,-17.84 5.91,-6.777 8.88,-15.238 8.88,-25.378 0,-16.2505 -5.72,-28.6802 -17.17,-37.3012 -11.44,-8.6094 -28.52,-12.918 -51.23,-12.918 -20.02,0 -35.7,4.1289 -47.06,12.3789 -11.35,8.2617 -17.88,21.2305 -19.59,38.9223 h 39.59 c 0,-7.6411 2.44,-13.3129 7.34,-17.0317 4.89,-3.7305 12.32,-5.5898 22.28,-5.5898 8.44,0 14.89,1.2812 19.39,3.8281 4.49,2.5625 6.74,5.9531 6.74,10.1719 0,4.3085 -1.65,7.6485 -4.93,10.0395 -3.27,2.371 -14.38,5.582 -33.32,9.609 -21.09,4.5 -35.08,10.359 -41.94,17.582 -6.87,7.219 -10.29,15.91 -10.29,26.051 0,14.539 5.19,26.429 15.61,35.679 10.41,9.25 25.8,13.868 46.18,13.868 19.93,0 35.19,-4.129 45.78,-12.379 10.59,-8.27 16.47,-20.391 17.64,-36.36 h -37.97" /><path
         id="path28"
         style="fill:#2e2d2d;fill-opacity:1;fill-rule:nonzero;stroke:none"
         d="M 1281.84,206.539 V 59.7813 h -38.65 V 206.539 Z m 0,17.371 h -38.65 v 35.809 h 38.65 V 223.91" /><path
         id="path30"
         style="fill:#2e2d2d;fill-opacity:1;fill-rule:nonzero;stroke:none"
         d="m 1350.5,132.281 c 0,-12.312 2.69,-22.211 8.08,-29.672 5.38,-7.4606 12.88,-11.1871 22.48,-11.1871 10.59,0 18.72,3.6172 24.37,10.8591 5.66,7.239 8.49,17.77 8.49,31.617 0,12.852 -3.03,23.231 -9.1,31.153 -6.05,7.91 -14.06,11.871 -24.03,11.871 -8.89,0 -16.15,-3.731 -21.81,-11.192 -5.65,-7.46 -8.48,-18.621 -8.48,-33.449 z m 101.79,74.258 V 63.4102 c 0,-22.1602 -6.11,-38.2813 -18.32,-48.3321 C 1421.77,5.01953 1403.14,0 1378.11,0 c -18.05,0 -33.06,3.89844 -45.04,11.7109 -11.99,7.8204 -18.34,18.5899 -19.06,32.3204 h 42.02 c 0.98,-9.8711 10.04,-14.8204 27.19,-14.8204 20.29,0 30.42,10.5782 30.42,31.7188 v 19.5 l -0.53,0.5312 c -7.46,-14.6601 -20.51,-21.9921 -39.18,-21.9921 -19.13,0 -34.43,6.621 -45.91,19.8593 -11.5,13.25 -17.24,31.8909 -17.24,55.9419 0,23.609 5.72,42.101 17.17,55.48 11.44,13.371 26.05,20.059 43.83,20.059 20.28,0 34.6,-8.528 42.95,-25.579 h 0.53 v 21.809 h 37.03" /><path
         id="path32"
         style="fill:#2e2d2d;fill-opacity:1;fill-rule:nonzero;stroke:none"
         d="M 1621.94,59.7813 H 1583.3 V 150.93 c 0,8.531 -1.93,15.152 -5.79,19.871 -3.86,4.699 -10.28,7.058 -19.26,7.058 -9.25,0 -16.6,-3.027 -22.08,-9.089 -5.48,-6.059 -8.21,-14.34 -8.21,-24.84 V 59.7813 h -38.64 V 206.539 h 37.03 V 185 h 0.53 c 9.24,16.871 23.83,25.309 43.76,25.309 14.99,0 27.29,-4.289 36.89,-12.86 9.61,-8.57 14.41,-20.617 14.41,-36.148 V 59.7813" /><path
         id="path34"
         style="fill:#2e2d2d;fill-opacity:1;fill-rule:nonzero;stroke:none"
         d="m 1635.43,512.301 c 0,-66.27 -53.72,-120 -120,-120 H 120 c -66.2812,0 -120,53.73 -120,120 V 1907.73 c 0,66.27 53.7188,120 120,120 h 1395.43 c 66.28,0 120,-53.73 120,-120 V 512.301" /><path
         id="path36"
         style="fill:#c7d513;fill-opacity:1;fill-rule:nonzero;stroke:none"
         d="M 409.348,643.02 V 764.379 H 308.113 V 644.801 c -52.675,21.308 -89.976,72.808 -89.976,132.597 0,78.743 63.933,143.262 142.664,143.262 78.742,0 143.254,-64.519 143.254,-143.262 0,-61.558 -39.653,-114.25 -94.707,-134.378 z m -48.547,381.82 c -135.559,0 -246.262,-110.692 -246.262,-246.852 0,-117.207 82.883,-216.058 193.574,-239.148 0,0 59.817,-8.762 101.235,-1.77 113.98,22.532 197.715,121.942 197.715,240.918 0,136.16 -110.708,246.852 -246.262,246.852" /><path
         id="path38"
         style="fill:#c7d513;fill-opacity:1;fill-rule:nonzero;stroke:none"
         d="m 608.242,1016.38 146.223,-0.58 c 68.062,-0.6 136.148,-59.198 136.148,-136.159 0,-22.5 -1.773,-47.95 -21.304,-80.5 37.879,-35.532 55.046,-70.45 55.632,-115.43 C 925.527,594.309 837.922,542.82 788.801,542.82 L 607.063,544 v 98.27 h 163.972 c 66.887,0.589 63.34,91.152 1.184,91.152 l -62.153,0.598 v 93.531 l 35.508,0.59 c 70.449,-0.59 66.899,91.75 -0.586,91.75 H 607.645 l 0.597,96.489" /><path
         id="path40"
         style="fill:#c7d513;fill-opacity:1;fill-rule:nonzero;stroke:none"
         d="m 1227.94,542.82 h -107.15 v 473.56 h 107.15 V 542.82" /><path
         id="path42"
         style="fill:#c7d513;fill-opacity:1;fill-rule:nonzero;stroke:none"
         d="M 1067.33,542.82 H 960.188 v 473.56 H 1067.33 V 542.82" /><path
         id="path44"
         style="fill:#c7d513;fill-opacity:1;fill-rule:nonzero;stroke:none"
         d="m 1400.52,1016.38 h 116.61 L 1372.7,789.078 1536.67,542.82 h -122.54 l -161.01,241.512 v 4.746 l 147.4,227.302" /></g></g></svg>